# xmcd CD database file
#
# Track frame offsets:
#	150
#	18105
#	33605
#	49372
#	68285
#	82305
#	100280
#	117230
#	136945
#	160655
#	168675
#	187365
#	211342
#	228457
#	242550
#	259242
#
# Disc length: 3603 seconds
#
# Revision: 7
# Processed by: cddbd v1.5.2PL0 Copyright (c) Steve Scherf et al.
# Submitted via: CDex 1.70beta2
#
DISCID=e20e1110
DTITLE=Janis Joplin - Absolute - Disc 1
DYEAR=1997
DGENRE=
TTITLE0=Cry baby
TTITLE1=Get it while you can
TTITLE2=A woman left lonely
TTITLE3=Piece of my heart
TTITLE4=Down on me
TTITLE5=Try (just a little bit harder)
TTITLE6=My baby
TTITLE7=Kozmic blues
TTITLE8=Ball and chain
TTITLE9=I'll drown in my own tears
TTITLE10=Maybe
TTITLE11=To love somebody
TTITLE12=Raise your hand (live)
TTITLE13=Magic of love
TTITLE14=Bye, bye baby
TTITLE15=Buried alive in the blues
EXTD=YEAR: 1997
EXTT0=
EXTT1=
EXTT2=
EXTT3=
EXTT4=
EXTT5=
EXTT6=
EXTT7=
EXTT8=
EXTT9=
EXTT10=
EXTT11=
EXTT12=
EXTT13=
EXTT14=
EXTT15=
PLAYORDER=
